<svg width="9" height="10" viewBox="0 0 9 10" fill="none" xmlns="http://www.w3.org/2000/svg">
<path fill-rule="evenodd" clip-rule="evenodd" d="M8.38402 1.89467C8.56738 1.89467 8.72003 2.04692 8.72003 2.24064V2.41974C8.72003 2.60875 8.56738 2.76571 8.38402 2.76571H0.57231C0.388489 2.76571 0.23584 2.60875 0.23584 2.41974V2.24064C0.23584 2.04692 0.388489 1.89467 0.57231 1.89467H1.94661C2.22578 1.89467 2.46874 1.69624 2.53154 1.41626L2.60351 1.09481C2.71536 0.656936 3.08346 0.366119 3.50474 0.366119H5.45113C5.86783 0.366119 6.24005 0.656936 6.34778 1.07171L6.42479 1.41579C6.48713 1.69624 6.73009 1.89467 7.00972 1.89467H8.38402ZM7.68584 8.44223C7.82932 7.10504 8.08053 3.92821 8.08053 3.89616C8.0897 3.79906 8.05807 3.70715 7.99527 3.63315C7.92788 3.56386 7.84262 3.52286 7.74864 3.52286H1.21085C1.11641 3.52286 1.02657 3.56386 0.964223 3.63315C0.900963 3.70715 0.869792 3.79906 0.874376 3.89616C0.875218 3.90205 0.884232 4.01395 0.899302 4.20103C0.966247 5.03213 1.1527 7.34689 1.27319 8.44223C1.35845 9.24916 1.88791 9.75632 2.65483 9.7747C3.24663 9.78837 3.85631 9.79308 4.47974 9.79308C5.06696 9.79308 5.66335 9.78837 6.27349 9.7747C7.06699 9.76103 7.59599 9.26283 7.68584 8.44223Z" fill="#FF0000"/>
</svg>
