<?xml version="1.0" standalone="no"?>
<!DOCTYPE svg PUBLIC "-//W3C//DTD SVG 20010904//EN"
 "http://www.w3.org/TR/2001/REC-SVG-20010904/DTD/svg10.dtd">
<svg version="1.0" xmlns="http://www.w3.org/2000/svg"
 width="512.000000pt" height="512.000000pt" viewBox="0 0 512.000000 512.000000"
 preserveAspectRatio="xMidYMid meet">

<g transform="translate(0.000000,512.000000) scale(0.100000,-0.100000)"
fill="#000000" stroke="none">
<path d="M1160 4622 c-125 -33 -235 -121 -298 -240 l-33 -62 1730 0 c1378 0
1731 3 1731 13 0 26 -63 119 -115 170 -60 59 -152 109 -233 126 -37 8 -452 11
-1385 10 -1220 0 -1337 -2 -1397 -17z"/>
<path d="M545 3988 c-169 -32 -319 -174 -366 -346 -18 -63 -19 -132 -19 -1400
0 -1462 -2 -1411 59 -1517 62 -107 145 -178 266 -226 l60 -24 1988 -3 c1757
-2 1995 -1 2054 13 185 43 329 188 368 372 22 101 22 2655 0 2756 -35 165
-151 298 -314 361 l-56 21 -1995 1 c-1238 1 -2014 -2 -2045 -8z m2089 -648
c23 -11 50 -33 61 -48 20 -26 20 -45 23 -824 1 -439 6 -798 10 -798 4 0 93 86
197 191 105 105 202 197 217 205 15 8 49 14 75 14 90 0 153 -63 153 -153 0
-26 -6 -60 -14 -75 -18 -34 -692 -705 -725 -722 -33 -17 -101 -16 -136 3 -17
8 -186 172 -377 364 -305 306 -347 353 -354 386 -21 117 90 220 201 187 32
-10 79 -51 237 -208 l198 -196 2 790 3 789 23 37 c25 40 91 78 136 78 16 0 48
-9 70 -20z"/>
</g>
</svg>
