<svg width="8" height="8" viewBox="0 0 8 8" fill="none" xmlns="http://www.w3.org/2000/svg">
<path fill-rule="evenodd" clip-rule="evenodd" d="M3.1286 7.26743L6.72982 2.61036C6.92554 2.35922 6.99513 2.06887 6.92989 1.77323C6.87335 1.50447 6.70808 1.24893 6.46016 1.05507L5.85561 0.574821C5.32934 0.156257 4.67695 0.200317 4.30291 0.680563L3.89842 1.20531C3.84623 1.27096 3.85928 1.36789 3.92452 1.42076C3.92452 1.42076 4.94661 2.24026 4.96835 2.25789C5.03794 2.32398 5.09013 2.41209 5.10318 2.51784C5.12493 2.72492 4.9814 2.91878 4.76828 2.94521C4.66825 2.95843 4.57257 2.92759 4.50298 2.87031L3.4287 2.01556C3.37651 1.97635 3.29822 1.98472 3.25473 2.03759L0.701682 5.34204C0.536408 5.54912 0.479867 5.81788 0.536408 6.07783L0.862606 7.49213C0.880003 7.56703 0.945243 7.6199 1.02353 7.6199L2.4588 7.60228C2.71976 7.59788 2.96332 7.47892 3.1286 7.26743ZM5.1383 6.82692H7.47866C7.707 6.82692 7.89271 7.01505 7.89271 7.24636C7.89271 7.47811 7.707 7.6658 7.47866 7.6658H5.1383C4.90996 7.6658 4.72424 7.47811 4.72424 7.24636C4.72424 7.01505 4.90996 6.82692 5.1383 6.82692Z" fill="#5D5FEF"/>
</svg>
