<?xml version="1.0" standalone="no"?>
<!DOCTYPE svg PUBLIC "-//W3C//DTD SVG 20010904//EN"
 "http://www.w3.org/TR/2001/REC-SVG-20010904/DTD/svg10.dtd">
<svg version="1.0" xmlns="http://www.w3.org/2000/svg"
 width="512.000000pt" height="512.000000pt" viewBox="0 0 512.000000 512.000000"
 preserveAspectRatio="xMidYMid meet">

<g transform="translate(0.000000,512.000000) scale(0.100000,-0.100000)"
fill="#000000" stroke="none">
<path d="M3805 4786 c-37 -16 -70 -52 -84 -89 -6 -16 -11 -100 -11 -192 l0
-163 -178 -4 c-178 -3 -179 -3 -215 -31 -69 -52 -87 -134 -46 -207 40 -70 72
-80 268 -80 l171 0 0 -171 c0 -155 2 -175 21 -208 34 -59 64 -76 141 -76 60 0
70 3 99 30 53 50 59 77 59 260 l0 165 174 0 c163 0 175 1 207 23 58 39 81 84
77 145 -6 64 -29 99 -88 130 -41 20 -58 22 -206 22 l-163 0 -3 178 -3 179 -29
37 c-46 61 -123 82 -191 52z"/>
<path d="M1302 4639 c-135 -17 -268 -75 -383 -167 -117 -93 -197 -209 -252
-366 l-32 -91 -3 -1495 c-2 -1339 -1 -1503 13 -1575 64 -318 323 -566 642
-615 45 -7 454 -10 1238 -8 1309 4 1205 -2 1370 77 163 78 291 206 366 367 78
166 73 54 76 1524 l3 1315 -25 -59 c-53 -129 -134 -214 -260 -273 -56 -26 -69
-28 -186 -28 -125 0 -125 0 -202 38 -151 75 -246 205 -272 373 l-6 41 -67 12
c-181 33 -331 172 -377 346 -44 170 9 352 136 469 51 48 94 73 189 114 30 13
-1869 14 -1968 1z m350 -1254 c45 -34 71 -90 66 -145 -16 -162 -227 -201 -299
-54 -37 77 -15 150 62 202 28 20 44 23 89 20 35 -2 66 -11 82 -23z m1827 10
c110 -56 117 -212 13 -277 l-37 -23 -643 -3 c-423 -2 -656 1 -681 8 -47 12
-96 65 -110 118 -18 64 12 136 72 172 31 19 55 20 695 20 563 0 667 -2 691
-15z m-1839 -776 c53 -30 84 -88 78 -149 -16 -163 -227 -199 -299 -52 -67 137
86 277 221 201z m1839 6 c68 -35 104 -119 82 -188 -15 -43 -68 -95 -112 -107
-47 -14 -1272 -13 -1321 0 -44 13 -94 66 -107 118 -18 64 12 136 72 172 31 19
55 20 695 20 563 0 667 -2 691 -15z m-1838 -778 c58 -39 81 -84 77 -145 -6
-64 -29 -99 -89 -130 -52 -27 -101 -25 -153 7 -47 29 -80 99 -73 153 15 112
147 176 238 115z m1833 9 c45 -19 85 -73 92 -127 8 -62 -27 -125 -86 -156
l-43 -23 -644 0 c-704 0 -685 -2 -736 59 -68 81 -48 194 43 242 33 18 71 19
688 19 535 0 659 -3 686 -14z"/>
</g>
</svg>
