<?xml version="1.0" standalone="no"?>
<!DOCTYPE svg PUBLIC "-//W3C//DTD SVG 20010904//EN"
 "http://www.w3.org/TR/2001/REC-SVG-20010904/DTD/svg10.dtd">
<svg version="1.0" xmlns="http://www.w3.org/2000/svg"
 width="512.000000pt" height="512.000000pt" viewBox="0 0 512.000000 512.000000"
 preserveAspectRatio="xMidYMid meet">

<g transform="translate(0.000000,512.000000) scale(0.100000,-0.100000)"
fill="#000000" stroke="none">
<path d="M1160 4622 c-125 -33 -235 -121 -298 -240 l-33 -62 1730 0 c1378 0
1731 3 1731 13 0 26 -63 119 -115 170 -60 59 -152 109 -233 126 -37 8 -452 11
-1385 10 -1220 0 -1337 -2 -1397 -17z"/>
<path d="M545 3988 c-169 -32 -319 -174 -366 -346 -18 -63 -19 -132 -19 -1400
0 -1462 -2 -1411 59 -1517 62 -107 145 -178 266 -226 l60 -24 1988 -3 c1757
-2 1995 -1 2054 13 185 43 329 188 368 372 22 101 22 2655 0 2756 -35 165
-151 298 -314 361 l-56 21 -1995 1 c-1238 1 -2014 -2 -2045 -8z m2113 -662
c21 -14 187 -175 369 -358 358 -360 353 -353 340 -448 -6 -50 -33 -85 -83
-110 -49 -24 -94 -26 -137 -4 -18 9 -121 104 -229 212 l-198 197 0 -795 c0
-770 -1 -796 -20 -827 -72 -119 -255 -92 -289 41 -8 31 -11 280 -11 813 l0
768 -176 -183 c-97 -100 -195 -193 -218 -207 -130 -76 -278 37 -236 178 10 35
66 97 348 381 217 217 351 345 377 357 52 25 113 20 163 -15z"/>
</g>
</svg>
